<svg width="388.244" height="380.582" xmlns="http://www.w3.org/2000/svg">

 <g>
  <title>background</title>
  <rect fill="none" id="canvas_background" height="851" width="1662" y="-1" x="-1"/>
 </g>
 <g>
  <title>Layer 1</title>
  <g stroke="null" id="svg_1" fill="#54d132">
   <path fill="#396849" stroke="null" id="svg_2" d="m62.112941,48.905l264.274274,0l0,30.085348l-264.274274,0l0,-30.085348zm241.305066,179.055714l0,-117.597244l-218.336578,0l0,117.597244l218.336578,0zm-186.669495,-87.532971l155.331829,0l0,57.489047l-155.331829,0l0,-57.489047zm139.437152,155.307489c9.499118,-14.690208 18.465991,-31.737215 26.773314,-51.080703l-31.759146,-11.697516c-8.256256,22.927742 -17.880523,43.880946 -28.820296,62.778219l-55.272825,0c-9.170421,-24.496761 -19.503867,-45.439065 -31.101034,-62.778219l-29.209409,11.697516c12.049574,18.263561 21.755835,35.268418 29.20869,51.080703l-81.377957,0l0,29.751777l279.243997,0l0,-29.751777l-77.685334,0z"/>
  </g>
 </g>
</svg>