<svg width="512" height="512" xmlns="http://www.w3.org/2000/svg" xml:space="preserve" style="enable-background:new 0 0 512 512;" version="1.1">

 <g>
  <title>background</title>
  <rect fill="none" id="canvas_background" height="851" width="1662" y="-1" x="-1"/>
 </g>
 <g>
  <title>Layer 1</title>
  <g id="svg_1">
   <path fill="#1885f2" id="svg_2" d="m491.5,0l-471,0c-11.3,0 -20.5,9.2 -20.5,20.5l0,471c0,11.3 9.2,20.5 20.5,20.5l471,0c11.3,0 20.5,-9.2 20.5,-20.5l0,-471c0,-11.3 -9.2,-20.5 -20.5,-20.5zm-286.5,307.7l45.4,51.6c5.9,21.1 -2.1,40.4 -2.1,40.4l-61.2,-71.6l0,-0.1c-5.7,18.6 -12.9,36.7 -21.3,54.2c-14.5,29.2 -35.3,35 -57.3,36.9c-22,1.9 -14.9,-3.4 -14.9,-3.4c43.5,-35.5 49.9,-56.2 62,-78.8c7.6,-14.3 13.1,-41.2 16.2,-62l-74.5,0c0,0 3.1,-20 12.3,-26.7l65,0c0.4,-9.8 -0.8,-65.8 -1.3,-84.1l-31.6,0c-5.9,28.8 -26.2,36.3 -30.8,38.5c-4.5,2.2 -15.1,4.5 -13.5,0c1.7,-4.5 17.3,-29.6 27.6,-70.8c10.6,-41.2 41,-39.6 41,-39.6c-8.2,14.4 -14.3,47.1 -14.3,47.1l102.2,0c6.5,0 6.8,25 6.8,25l-58.1,0c-0.4,14.5 -1.8,53.6 -3.2,84.1l61.1,0c0,0 7.8,9.9 7.8,26.7l-70.4,0l-0.1,1c-1,13.1 -4,28.1 -8.3,43.3l15.5,-11.7zm214.7,74.3l-56.1,0l-44.5,29.8l-10.4,-29.8l-25.7,0l0,-247.9l136.7,0l0,247.9zm-230.1,-62.6c0,0 0,-0.1 0,0zm138.2,60.3l36.4,-24.4l29.2,0l-0.1,0l0,-193.6l-83.1,0l0,193.6l9,0l8.6,24.4z"/>
  </g>
 </g>
</svg>